<?xml version="1.0" encoding="UTF-8" standalone="no"?>
<svg
   xmlns:dc="http://purl.org/dc/elements/1.1/"
   xmlns:cc="http://creativecommons.org/ns#"
   xmlns:rdf="http://www.w3.org/1999/02/22-rdf-syntax-ns#"
   xmlns:svg="http://www.w3.org/2000/svg"
   xmlns="http://www.w3.org/2000/svg"
   xmlns:xlink="http://www.w3.org/1999/xlink"
   xmlns:sodipodi="http://sodipodi.sourceforge.net/DTD/sodipodi-0.dtd"
   xmlns:inkscape="http://www.inkscape.org/namespaces/inkscape"
   width="24"
   height="24"
   viewBox="0 0 24 24"
   version="1.1"
   id="svg6"
   sodipodi:docname="baseline-trending_down-24px.svg"
   inkscape:export-filename="/home/daniel/Descargas/baseline-trending_down-24px.svg.png"
   inkscape:export-xdpi="256"
   inkscape:export-ydpi="256"
   inkscape:version="0.92.4 (5da689c313, 2019-01-14)">
  <metadata
     id="metadata12">
    <rdf:RDF>
      <cc:Work
         rdf:about="">
        <dc:format>image/svg+xml</dc:format>
        <dc:type
           rdf:resource="http://purl.org/dc/dcmitype/StillImage" />
        <dc:title></dc:title>
      </cc:Work>
    </rdf:RDF>
  </metadata>
  <defs
     id="defs10">
    <linearGradient
       inkscape:collect="always"
       id="linearGradient4536">
      <stop
         style="stop-color:#33d179;stop-opacity:1"
         offset="0"
         id="stop4532" />
      <stop
         style="stop-color:#26a269;stop-opacity:1"
         offset="1"
         id="stop4534" />
    </linearGradient>
    <linearGradient
       inkscape:collect="always"
       xlink:href="#linearGradient4536"
       id="linearGradient4538"
       x1="20.095327"
       y1="15.7991"
       x2="3.5186448"
       y2="7.561811"
       gradientUnits="userSpaceOnUse" />
  </defs>
  <sodipodi:namedview
     pagecolor="#ffffff"
     bordercolor="#666666"
     borderopacity="1"
     objecttolerance="10"
     gridtolerance="10"
     guidetolerance="10"
     inkscape:pageopacity="0"
     inkscape:pageshadow="2"
     inkscape:window-width="1920"
     inkscape:window-height="1043"
     id="namedview8"
     showgrid="false"
     inkscape:zoom="9.8333333"
     inkscape:cx="-12.101695"
     inkscape:cy="12"
     inkscape:window-x="0"
     inkscape:window-y="0"
     inkscape:window-maximized="1"
     inkscape:current-layer="svg6" />
  <path
     d="M16 18l2.29-2.29-4.88-4.88-4 4L2 7.41 3.41 6l6 6 4-4 6.3 6.29L22 12v6z"
     id="path2" />
  <path
     d="M0 0h24v24H0z"
     fill="none"
     id="path4" />
  <path
     style="stroke-width:0.102;fill:url(#linearGradient4538);fill-opacity:1;stroke:#ffffff;stroke-opacity:1;stroke-miterlimit:4;stroke-dasharray:none"
     d="m 17.223295,16.814062 1.14201,-1.14526 -2.415634,-2.414062 c -1.328599,-1.327734 -2.460618,-2.414062 -2.515598,-2.414062 -0.05498,0 -0.981424,0.880593 -2.058767,1.956873 L 9.4165006,14.754424 5.7559139,11.094897 2.0953273,7.4353695 2.7562858,6.774411 3.4172444,6.1134524 6.4172591,9.1121743 9.4172739,12.110896 11.425122,10.103047 13.432971,8.0951988 16.559993,11.221 l 3.127022,3.125802 1.119204,-1.115735 1.119205,-1.115734 v 2.921995 2.921994 h -2.92207 -2.922071 z"
     id="path3717"
     inkscape:connector-curvature="0" />
</svg>
